<svg xmlns="http://www.w3.org/2000/svg" viewBox="0 0 32 32">
  <path fill="#000" d="M20.992 20.163c-1.511-.099-2.699-1.349-2.699-2.877 0-.051.001-.102.004-.153-.003-.048-.005-.104-.005-.161 0-1.525 1.19-2.771 2.692-2.862 1.509.082 2.701 1.325 2.701 2.847 0 .062-.002.123-.006.184.003.05.005.109.005.168 0 1.523-1.191 2.768-2.693 2.854zm-9.966 0c-1.511-.099-2.699-1.349-2.699-2.877 0-.051.001-.102.004-.153-.003-.048-.005-.104-.005-.161 0-1.525 1.19-2.771 2.692-2.862 1.509.082 2.701 1.325 2.701 2.847 0 .062-.002.123-.006.184.003.048.005.104.005.161 0 1.525-1.19 2.771-2.692 2.862zM26.393 6.465c-1.763-.832-3.811-1.49-5.955-1.871l-.149-.022a.095.095 0 0 0-.098.045c-.234.411-.488.924-.717 1.45l-.043.111a21.638 21.638 0 0 0-6.856 0c-.27-.63-.528-1.142-.813-1.638l.041.077a.096.096 0 0 0-.099-.046c-2.293.403-4.342 1.06-6.256 1.957l.151-.064a.097.097 0 0 0-.04.034C2.705 10.529.997 15.557.997 20.984c0 .907.048 1.802.141 2.684l-.009-.11a.097.097 0 0 0 .039.07c2.14 1.601 4.628 2.891 7.313 3.738l.176.048a.095.095 0 0 0 .105-.034c.535-.72 1.044-1.536 1.485-2.392l.047-.1a.096.096 0 0 0-.052-.133c-.912-.352-1.683-.727-2.417-1.157l.077.042a.096.096 0 0 1-.01-.159c.157-.118.315-.24.465-.364a.096.096 0 0 1 .097-.012c2.208 1.061 4.8 1.681 7.536 1.681s5.329-.62 7.643-1.727l-.107.046a.096.096 0 0 1 .099.012c.15.124.307.248.466.365a.096.096 0 0 1-.008.159c-.661.395-1.432.769-2.235 1.078l-.105.036a.096.096 0 0 0-.051.133c.501.96 1.009 1.775 1.571 2.548l-.04-.057a.096.096 0 0 0 .106.036c2.865-.892 5.358-2.182 7.566-3.832l-.065.047a.096.096 0 0 0 .039-.069c.087-.784.136-1.694.136-2.615 0-5.415-1.712-10.43-4.623-14.534l.052.078a.099.099 0 0 0-.038-.036z"/>
</svg>
